<svg xmlns="http://www.w3.org/2000/svg" viewBox="0 0 28 28"><g id="f4180cd6-e0be-4b9f-aceb-0af06aa390b7" data-name="Layer 2"><g id="ba788c74-65f5-49a6-9243-f28cf37e479a" data-name="icons"><g id="f409df82-1cb7-4775-bf48-a4d34b6b8ad5" data-name="analysis mode icon"><path d="M14.15,1a13,13,0,0,1,0,26,13,13,0,0,1,0-26m0-1a14,14,0,0,0,0,28A13.93,13.93,0,0,0,28,14,13.93,13.93,0,0,0,14.15,0Z" style="fill:#ff7100"/><path d="M14.15,6.17A7.83,7.83,0,1,1,6.41,14a7.79,7.79,0,0,1,7.74-7.83m0-1A8.83,8.83,0,1,0,22.88,14a8.79,8.79,0,0,0-8.73-8.83Z" style="fill:#ff7100"/><path d="M14.15,11.65A2.35,2.35,0,1,1,11.83,14a2.34,2.34,0,0,1,2.32-2.35m0-1A3.35,3.35,0,1,0,17.46,14a3.34,3.34,0,0,0-3.31-3.35Z" style="fill:#ff7100"/><line y1="14" x2="27.71" y2="14" style="fill:none;stroke:#ff7100;stroke-miterlimit:10"/><line x1="14.15" y1="27.7" x2="14.15" y2="0.3" style="fill:none;stroke:#ff7100;stroke-miterlimit:10"/><path d="M14.15,14l0-14h0A13.92,13.92,0,0,1,27.4,9.91Z" style="fill:#ff7100"/></g></g></g></svg>