<svg xmlns="http://www.w3.org/2000/svg" viewBox="0 0 68 68"><g id="f182cc8d-c102-47f8-9d3b-93d50f5b76bd" data-name="Layer 2"><g id="e8dd71b0-4f01-45e7-a7a4-2a2cb8392f49" data-name="icons"><g id="e477b357-a5d4-460a-b3cc-6e9a11c213fc" data-name="camera icon"><path d="M18.39,64.21A34.18,34.18,0,0,1,.29,38.35L34.9,48.73Z" style="fill:#ff7100"/><path d="M34,68a33.63,33.63,0,0,1-14-3L46.53,40l5.34,22.88A33.82,33.82,0,0,1,34,68Z" style="fill:#ff7100"/><path d="M45.13,26.17,68,33.09c0,.3,0,.61,0,.91A33.88,33.88,0,0,1,53.55,61.81Z" style="fill:#ff7100"/><path d="M32.1,20.26,49.65,3.82A34,34,0,0,1,67.86,31Z" style="fill:#ff7100"/><path d="M15.06,5.77A34,34,0,0,1,48,3L20.48,29Z" style="fill:#ff7100"/><path d="M.08,36.22C0,35.44,0,34.7,0,34A34,34,0,0,1,13.4,7l8.47,35.87Z" style="fill:#ff7100"/></g></g></g></svg>