<svg xmlns="http://www.w3.org/2000/svg" viewBox="0 0 50 33"><g id="fcee3292-d72a-4165-a2a1-118292a9d174" data-name="Layer 2"><g id="f3e8baa9-15e4-42fe-b0c8-ce1d7abf9ad0" data-name="icons active"><g id="b984d9fa-d5ca-40ee-b44a-d8df58d1f601" data-name="cargo scoop icon"><line x1="38" y1="16.5" x2="48.5" y2="16.5" style="fill:none;stroke:#a6fffe;stroke-linejoin:round;stroke-dasharray:3"/><line x1="3" y1="16.5" x2="13" y2="16.5" style="fill:none;stroke:#a6fffe;stroke-linejoin:round;stroke-dasharray:3"/><line x1="24.5" y1="4" x2="24.5" y2="0.5" style="fill:none;stroke:#a6fffe;stroke-linejoin:round;stroke-dasharray:3"/><line x1="24.5" y1="32.5" x2="24.5" y2="29" style="fill:none;stroke:#a6fffe;stroke-linejoin:round;stroke-dasharray:3"/><polygon points="23.92 6.67 20.75 6.96 17.16 9.38 15.71 12.81 16.93 14.81 20.2 14.61 23.61 12.12 25.17 8.79 23.92 6.67" style="fill:none;stroke:#a6fffe;stroke-linejoin:round"/><ellipse cx="20.35" cy="10.63" rx="2.4" ry="0.96" transform="translate(-2.34 14.15) rotate(-36.4)" style="fill:none;stroke:#a6fffe;stroke-linejoin:round"/><line x1="25.17" y1="8.79" x2="34.32" y2="21.98" style="fill:none;stroke:#a6fffe;stroke-linejoin:round"/><line x1="23.61" y1="12.12" x2="32.9" y2="25.36" style="fill:none;stroke:#a6fffe;stroke-linejoin:round"/><polyline points="16.93 14.81 26.16 27.55 29.39 27.7 32.9 25.36 34.32 21.98 33.46 20.09 23.92 6.67" style="fill:none;stroke:#a6fffe;stroke-linejoin:round"/><line x1="20.2" y1="14.61" x2="29.44" y2="27.56" style="fill:none;stroke:#a6fffe;stroke-linejoin:round"/><path d="M7.5,11V6.5H16m4,20H7.5V21m35,0v5.5H37m-8-20H42.5V12" style="fill:none;stroke:#a6fffe;stroke-linejoin:round;opacity:0.6000000000000001"/><path d="M.5,12V.5H20M.5,21V32.5H20m9,0H49.5V21m0-9V.5H29" style="fill:none;stroke:#a6fffe;stroke-linejoin:round;opacity:0.6000000000000001"/></g></g></g></svg>