<svg xmlns="http://www.w3.org/2000/svg" viewBox="0 0 50 33"><g id="b33d1b33-71e4-41d0-af4e-7fa1cec804fe" data-name="Layer 2"><g id="ac04188f-8cbf-45e3-9794-47c65cd30e01" data-name="icons"><g id="a58ffbd9-5f2c-45bd-bb42-00673d046c04" data-name="cargo scoop icon"><line x1="38" y1="16.5" x2="48.5" y2="16.5" style="fill:none;stroke:#f76e01;stroke-linejoin:round;stroke-dasharray:3"/><line x1="3" y1="16.5" x2="13" y2="16.5" style="fill:none;stroke:#f76e01;stroke-linejoin:round;stroke-dasharray:3"/><line x1="24.5" y1="4" x2="24.5" y2="0.5" style="fill:none;stroke:#f76e01;stroke-linejoin:round;stroke-dasharray:3"/><line x1="24.5" y1="32.5" x2="24.5" y2="29" style="fill:none;stroke:#f76e01;stroke-linejoin:round;stroke-dasharray:3"/><polygon points="23.92 6.67 20.75 6.96 17.16 9.38 15.71 12.81 16.93 14.81 20.2 14.61 23.61 12.12 25.17 8.79 23.92 6.67" style="fill:none;stroke:#f76e01;stroke-linejoin:round"/><ellipse cx="20.35" cy="10.63" rx="2.4" ry="0.96" transform="translate(-2.34 14.15) rotate(-36.4)" style="fill:none;stroke:#f76e01;stroke-linejoin:round"/><line x1="25.17" y1="8.79" x2="34.32" y2="21.98" style="fill:none;stroke:#f76e01;stroke-linejoin:round"/><line x1="23.61" y1="12.12" x2="32.9" y2="25.36" style="fill:none;stroke:#f76e01;stroke-linejoin:round"/><polyline points="16.93 14.81 26.16 27.55 29.39 27.7 32.9 25.36 34.32 21.98 33.46 20.09 23.92 6.67" style="fill:none;stroke:#f76e01;stroke-linejoin:round"/><line x1="20.2" y1="14.61" x2="29.44" y2="27.56" style="fill:none;stroke:#f76e01;stroke-linejoin:round"/><path d="M7.5,11V6.5H16m4,20H7.5V21m35,0v5.5H37m-8-20H42.5V12" style="fill:none;stroke:#f76e01;stroke-linejoin:round;opacity:0.6000000000000001"/><path d="M.5,12V.5H20M.5,21V32.5H20m9,0H49.5V21m0-9V.5H29" style="fill:none;stroke:#f76e01;stroke-linejoin:round;opacity:0.6000000000000001"/></g></g></g></svg>