<svg xmlns="http://www.w3.org/2000/svg" viewBox="0 0 140 64"><g id="e786ac29-7677-47dc-890b-40888dcb233f" data-name="Layer 2"><g id="a7a524ad-69ac-4564-8a09-c49b4718052d" data-name="icons"><g id="b486ebd0-af3d-45c1-95a7-3ab5ad96b681" data-name="emergency drop icon"><path d="M111.56,57.55,71.22,13a1,1,0,0,0-1.44,0L29.44,57.55a1,1,0,0,0,.72,1.62h80.68A1,1,0,0,0,111.56,57.55ZM68.43,26h4.14a.85.85,0,0,1,.86.95L71.88,42.53a.87.87,0,0,1-.87.78H70a.87.87,0,0,1-.87-.78L67.57,27A.85.85,0,0,1,68.43,26ZM70.5,53.59a3.5,3.5,0,1,1,3.5-3.5A3.5,3.5,0,0,1,70.5,53.59Z" style="fill:#ff7100"/><polygon points="20.5 40.5 20.5 12.5 8.5 12.5 8.5 40.5 2.38 40.5 14.5 53.5 26.62 40.5 20.5 40.5" style="fill:#ff7100;stroke:#ff7100;stroke-miterlimit:10"/><polygon points="131.5 40.5 131.5 12.5 119.5 12.5 119.5 40.5 113.38 40.5 125.5 53.5 137.62 40.5 131.5 40.5" style="fill:#ff7100;stroke:#ff7100;stroke-miterlimit:10"/><rect id="fc957013-5be9-4687-9419-31c1bc70ba2d" data-name="frame" width="140" height="64" style="fill:none;opacity:0.3"/></g></g></g></svg>