<svg xmlns="http://www.w3.org/2000/svg" viewBox="0 0 129.5 64"><g id="afb434fd-d6ad-4769-a51a-a91974d2cb6f" data-name="Layer 2"><g id="f2ddfe31-60f4-476f-b90d-fce1e37c7110" data-name="icons"><g id="f39576cb-fe8f-4bd4-bd33-a10b54cbbc0c" data-name="fss scanner icon"><circle cx="65.5" cy="25.72" r="19.94" style="fill:none;stroke:#ff7100;stroke-linecap:round;stroke-miterlimit:10"/><path d="M85.56,42.89a26.37,26.37,0,0,0,0-34.33" style="fill:none;stroke:#ff7100;stroke-linecap:round;stroke-miterlimit:10"/><path d="M45.44,8.56a26.37,26.37,0,0,0,0,34.33" style="fill:none;stroke:#ff7100;stroke-linecap:round;stroke-miterlimit:10"/><line x1="39.09" y1="25.72" x2="2" y2="25.72" style="fill:none;stroke:#ff7100;stroke-linecap:round;stroke-miterlimit:10"/><line x1="91.91" y1="25.72" x2="129" y2="25.72" style="fill:none;stroke:#ff7100;stroke-linecap:round;stroke-miterlimit:10"/><path d="M65.5,5.78a21,21,0,0,0-2.11.11,19.94,19.94,0,0,1,0,39.66,18.39,18.39,0,0,0,2.11.12,19.95,19.95,0,0,0,0-39.89Z" style="fill:#ff7100"/><line y1="61.33" x2="129" y2="61.33" style="fill:none;stroke:#ff7100;stroke-miterlimit:10"/><line x1="0.5" y1="61" x2="0.5" y2="56" style="fill:none;stroke:#ff7100;stroke-linecap:round;stroke-miterlimit:10"/><line x1="11.5" y1="61" x2="11.5" y2="56" style="fill:none;stroke:#ff7100;stroke-linecap:round;stroke-miterlimit:10"/><line x1="25.5" y1="61" x2="25.5" y2="56" style="fill:none;stroke:#ff7100;stroke-linecap:round;stroke-miterlimit:10"/><line x1="50.5" y1="61" x2="50.5" y2="56" style="fill:none;stroke:#ff7100;stroke-linecap:round;stroke-miterlimit:10"/><line x1="55.5" y1="61" x2="55.5" y2="56" style="fill:none;stroke:#ff7100;stroke-linecap:round;stroke-miterlimit:10"/><line x1="128.5" y1="61" x2="128.5" y2="56" style="fill:none;stroke:#ff7100;stroke-linecap:round;stroke-miterlimit:10"/><line x1="110.5" y1="61" x2="110.5" y2="56" style="fill:none;stroke:#ff7100;stroke-linecap:round;stroke-miterlimit:10"/><line x1="105.5" y1="61" x2="105.5" y2="56" style="fill:none;stroke:#ff7100;stroke-linecap:round;stroke-miterlimit:10"/><line x1="85.5" y1="61" x2="85.5" y2="56" style="fill:none;stroke:#ff7100;stroke-linecap:round;stroke-miterlimit:10"/><line x1="64.5" y1="61" x2="64.5" y2="56" style="fill:none;stroke:#ff7100;stroke-linecap:round;stroke-miterlimit:10"/><rect id="ffe303d7-cf38-44f2-91a3-c65fa4092c9c" data-name="frame" width="129" height="64" style="fill:none;opacity:0.3"/></g></g></g></svg>