<svg xmlns="http://www.w3.org/2000/svg" viewBox="0 0 65 64"><g id="ad5ddaf4-4629-4e36-a3f8-8845adeae56d" data-name="Layer 2"><g id="fd53dbac-d868-47cd-bf25-3d68b243ce86" data-name="icons"><g id="a2114cfd-7e03-498d-adce-7570491941dc" data-name="galaxy map icon"><circle cx="32.6" cy="32.72" r="8" style="fill:#ff7100;stroke:#ff7100;stroke-miterlimit:10"/><path d="M52.76,59.13A57,57,0,0,0,59,56.82" style="fill:none;stroke:#ff7100;stroke-linecap:round;stroke-miterlimit:10"/><path d="M7.22,22.92c-3.43,3.52-5.59,7.82-5.59,12.45,0,14.56,15.22,26.36,34.67,26.35a53.78,53.78,0,0,0,10.05-1" style="fill:none;stroke:#ff7100;stroke-linecap:round;stroke-miterlimit:10"/><path d="M32.58,40.65c4.54.5,15.83-4.46,16-12.25C48.78,18.82,38.3,14,28.41,14a31,31,0,0,0-16.08,4.78" style="fill:none;stroke:#ff7100;stroke-linecap:round;stroke-miterlimit:10"/><path d="M33.69,3.9a47.37,47.37,0,0,0-4.81-.24A57.51,57.51,0,0,0,6.21,8.56" style="fill:none;stroke:#ff7100;stroke-linecap:round;stroke-miterlimit:10"/><path d="M61.93,36.88A15.94,15.94,0,0,0,63.55,30c0-11.56-9.6-21.37-23.29-24.92" style="fill:none;stroke:#ff7100;stroke-linecap:round;stroke-miterlimit:10"/><path d="M32.6,24.72c-4.54-.5-15.83,4.46-16,12.25-.21,9.59,10.28,14.4,20.17,14.37a30.77,30.77,0,0,0,21.37-9.07" style="fill:none;stroke:#ff7100;stroke-linecap:round;stroke-miterlimit:10"/><circle cx="60.24" cy="39.72" r="3.31" style="fill:none;stroke:#ff7100;stroke-linecap:round;stroke-miterlimit:10"/><circle cx="37" cy="4.55" r="3.31" style="fill:none;stroke:#ff7100;stroke-linecap:round;stroke-miterlimit:10"/><circle cx="9.52" cy="20.55" r="3.31" style="fill:none;stroke:#ff7100;stroke-linecap:round;stroke-miterlimit:10"/><circle cx="49.52" cy="59.81" r="3.31" style="fill:none;stroke:#ff7100;stroke-linecap:round;stroke-miterlimit:10"/><circle cx="60.24" cy="39.72" r="3.31" style="fill:#ff7100;stroke:#ff7100;stroke-miterlimit:10"/><circle cx="37" cy="4.55" r="3.31" style="fill:#ff7100;stroke:#ff7100;stroke-miterlimit:10"/><circle cx="9.52" cy="20.55" r="3.31" style="fill:#ff7100;stroke:#ff7100;stroke-miterlimit:10"/><circle cx="49.52" cy="59.81" r="3.31" style="fill:#ff7100;stroke:#ff7100;stroke-miterlimit:10"/><rect id="a9c5760c-4504-4be6-8da7-8473fe384869" data-name="frame" width="65" height="64" style="fill:none;opacity:0.3"/></g></g></g></svg>