<svg xmlns="http://www.w3.org/2000/svg" viewBox="0 0 64 32"><g id="e44e69ac-6a95-4022-8e49-d7d8b7253b3a" data-name="Layer 2"><g id="fbd9db3f-da34-4c1d-b217-6c4244278397" data-name="icons"><g id="ba71923e-2e9f-4883-9bf2-441738f8841f" data-name="hardpoints icon"><line x1="50.59" y1="9.92" x2="46.59" y2="12.92" style="fill:#ff7100"/><polygon points="56.37 19.92 51.35 19.92 54.45 21.87 54.45 24.92 59.05 24.92 62.05 27.92 42.05 27.92 44.05 24.92 49.97 24.92 47.66 19.97 44.06 17.56 9.24 17.5 10.95 15.08 44.33 15.08 46.83 12.37 13.96 12.13 15.5 9.92 37.02 9.92 41.24 7.92 48.59 7.92 48.59 9.92 49.77 9.92 52.18 6.92 61.05 6.92 61.05 9.92 62.05 9.92 62.05 13.91 63.05 13.92 63.05 17.13 56.37 19.92" style="fill:#ff7100"/><rect id="ff188ecb-7ed6-4c6e-a195-77d61e9c0657" data-name="frame" width="64" height="32" style="fill:none;opacity:0.49"/></g></g></g></svg>