<svg xmlns="http://www.w3.org/2000/svg" viewBox="0 0 64 32"><g id="ad754c11-b63e-40d4-ae53-bbc0ec67287d" data-name="Layer 2"><g id="e226abf8-6893-40bb-ab17-9546523c52d9" data-name="icons"><g id="ab4d69cd-61e2-4b3d-a7a3-62f4f110430a" data-name="hardpoints icon"><rect id="ba049c0d-aef0-4fd1-b0ee-7b7ad126f763" data-name="frame" width="64" height="32" style="fill:none;opacity:0.49"/><polygon points="54.9 24.5 54.9 21.45 50.78 19.7 46.08 19.7 47.8 21.36 50.42 24.5 54.9 24.5" style="fill:none;stroke:#f76e01;stroke-linejoin:round"/><polygon points="63.5 16.71 63.5 13.5 62.5 13.49 62.5 9.5 61.5 9.5 61.5 6.5 52.63 6.5 51.51 8.5 49.5 8.5 49.5 6.5 42.15 6.5 37.92 8.5 16.85 8.5 6.5 10.11 6.5 12.28 7.77 13.5 10.14 13.5 11.32 12.5 13.59 12.5 15.01 11.5 47.5 11.5 43.5 16.5 29.27 16.5 30.99 14.5 14.14 14.5 13.18 15.5 6.77 15.5 5.5 16.61 5.5 17.5 20.5 17.5 29.7 19.5 56.82 19.5 63.5 16.71" style="fill:none;stroke:#f76e01;stroke-linejoin:round"/><line x1="51.5" y1="8.5" x2="47.5" y2="11.5" style="fill:none;stroke:#f76e01;stroke-linejoin:round"/><polygon points="42.5 27.5 62.5 27.5 59.5 24.5 44.5 24.5 42.5 27.5" style="fill:none;stroke:#f76e01;stroke-linejoin:round"/></g></g></g></svg>