<svg xmlns="http://www.w3.org/2000/svg" viewBox="0 0 35 32"><g id="a2552daa-40d3-4a40-a343-76217aa2f2db" data-name="Layer 2"><g id="e588c858-bfad-46b9-9e5f-6932d0bf04fb" data-name="icons active"><g id="ea0e1e39-2e31-461f-9ef6-ee03326f7298" data-name="light"><line x1="9.52" y1="9.27" x2="3.3" y2="11.86" style="fill:#a6fffe;stroke:#a6fffe;stroke-linecap:round;stroke-miterlimit:10"/><line x1="9.52" y1="13.98" x2="3.3" y2="16.57" style="fill:#a6fffe;stroke:#a6fffe;stroke-linecap:round;stroke-miterlimit:10"/><line x1="9.52" y1="18.7" x2="3.3" y2="21.29" style="fill:#a6fffe;stroke:#a6fffe;stroke-linecap:round;stroke-miterlimit:10"/><line x1="9.52" y1="23.41" x2="3.3" y2="26" style="fill:#a6fffe;stroke:#a6fffe;stroke-linecap:round;stroke-miterlimit:10"/><path d="M12.86,15.87a27.47,27.47,0,0,0,.73,7.85A2.35,2.35,0,0,0,16,25.4c10.51-.56,14.89-6.06,14.89-9.53h0c0-3.47-4.38-9-14.89-9.53A2.34,2.34,0,0,0,13.59,8a27.47,27.47,0,0,0-.73,7.85Z" style="fill:#a6fffe"/><path d="M12.86,15.87a27.47,27.47,0,0,0,.73,7.85A2.35,2.35,0,0,0,16,25.4c10.51-.56,14.89-6.06,14.89-9.53h0c0-3.47-4.38-9-14.89-9.53A2.34,2.34,0,0,0,13.59,8a27.47,27.47,0,0,0-.73,7.85Z" style="fill:none;stroke:#a6fffe;stroke-miterlimit:10"/><rect id="b906d219-75e5-4a07-9244-bfb6bbcd5082" data-name="frame" width="35" height="32" style="fill:none;opacity:0.49"/></g></g></g></svg>