<svg xmlns="http://www.w3.org/2000/svg" viewBox="0 0 35 32"><g id="b202ab78-aa49-472b-8b04-29986fcc65c3" data-name="Layer 2"><g id="f2881e40-f2f8-4108-a584-ae70e317439e" data-name="icons"><g id="acf8a935-1123-4363-b950-ffa4029a2222" data-name="headlights icon"><rect id="bb028501-2f3c-465d-b7b5-46b33963a6f2" data-name="frame" width="35" height="32" style="fill:none;opacity:0.49"/><g id="a097bbac-0a0d-48b6-a503-ee70d946a54c" data-name="light"><line x1="9.52" y1="9.27" x2="3.3" y2="11.86" style="fill:none;stroke:#f76e01;stroke-linecap:round;stroke-miterlimit:10"/><line x1="9.52" y1="13.98" x2="3.3" y2="16.57" style="fill:none;stroke:#f76e01;stroke-linecap:round;stroke-miterlimit:10"/><line x1="9.52" y1="18.7" x2="3.3" y2="21.29" style="fill:none;stroke:#f76e01;stroke-linecap:round;stroke-miterlimit:10"/><line x1="9.52" y1="23.41" x2="3.3" y2="26" style="fill:none;stroke:#f76e01;stroke-linecap:round;stroke-miterlimit:10"/><path d="M12.86,15.87a27.47,27.47,0,0,0,.73,7.85A2.35,2.35,0,0,0,16,25.4c10.51-.56,14.89-6.06,14.89-9.53h0c0-3.47-4.38-9-14.89-9.53A2.34,2.34,0,0,0,13.59,8a27.47,27.47,0,0,0-.73,7.85Z" style="fill:none;stroke:#f76e01;stroke-miterlimit:10"/></g></g></g></g></svg>