<svg xmlns="http://www.w3.org/2000/svg" viewBox="0 0 35 32"><g id="a52b97fe-840c-4a10-8a34-ab34b2971699" data-name="Layer 2"><g id="f53f6f51-2504-442f-90e6-7363d392be4c" data-name="icons"><g id="e2ee45e9-ae87-4d0e-ac04-e9b1bd497a63" data-name="light"><line x1="9.52" y1="9.27" x2="3.3" y2="11.86" style="fill:#ff7100;stroke:#ff7100;stroke-linecap:round;stroke-miterlimit:10"/><line x1="9.52" y1="13.98" x2="3.3" y2="16.57" style="fill:#ff7100;stroke:#ff7100;stroke-linecap:round;stroke-miterlimit:10"/><line x1="9.52" y1="18.7" x2="3.3" y2="21.29" style="fill:#ff7100;stroke:#ff7100;stroke-linecap:round;stroke-miterlimit:10"/><line x1="9.52" y1="23.41" x2="3.3" y2="26" style="fill:#ff7100;stroke:#ff7100;stroke-linecap:round;stroke-miterlimit:10"/><path d="M12.86,15.87a27.47,27.47,0,0,0,.73,7.85A2.35,2.35,0,0,0,16,25.4c10.51-.56,14.89-6.06,14.89-9.53h0c0-3.47-4.38-9-14.89-9.53A2.34,2.34,0,0,0,13.59,8a27.47,27.47,0,0,0-.73,7.85Z" style="fill:#ff7100"/><path d="M12.86,15.87a27.47,27.47,0,0,0,.73,7.85A2.35,2.35,0,0,0,16,25.4c10.51-.56,14.89-6.06,14.89-9.53h0c0-3.47-4.38-9-14.89-9.53A2.34,2.34,0,0,0,13.59,8a27.47,27.47,0,0,0-.73,7.85Z" style="fill:none;stroke:#ff7100;stroke-miterlimit:10"/><rect id="e055319d-20b2-4e07-871b-4b5ee84731bb" data-name="frame" width="35" height="32" style="fill:none;opacity:0.49"/></g></g></g></svg>