<svg xmlns="http://www.w3.org/2000/svg" viewBox="0 0 56.07 32"><g id="ada21526-d0c5-475f-8f9d-ca3da44c8bfe" data-name="Layer 2"><g id="a1c869a9-00ae-41f1-9336-34a4884e6aae" data-name="icons"><g id="be3b6857-b3ce-4292-bd6f-e00719397485" data-name="hud icon"><path d="M18.85,31.2c-1.18-1.18-3.33-3.34-2.5-6.68" style="fill:none;stroke:#ff7100;stroke-miterlimit:10"/><path d="M37.21,31.2c1.18-1.18,3.33-3.34,2.5-6.68" style="fill:none;stroke:#ff7100;stroke-miterlimit:10"/><ellipse cx="28.07" cy="26.5" rx="10" ry="5.5" style="fill:#ff7100"/><polygon points="28.01 24.52 26.59 27 29.44 27 28.01 24.52" style="fill:#ff7100"/><ellipse cx="5.57" cy="24" rx="5" ry="3.5" style="fill:none;stroke:#ff7100;stroke-miterlimit:10"/><path d="M10.51,27a2.66,2.66,0,0,1-.88,1.89,6,6,0,0,1-4.12,1.44c-2.77,0-5-1.49-5-3.33" style="fill:none;stroke:#ff7100;stroke-miterlimit:10"/><path d="M55.56,27a2.64,2.64,0,0,1-.89,1.89,6,6,0,0,1-4.12,1.44c-2.76,0-5-1.49-5-3.33" style="fill:none;stroke:#ff7100;stroke-miterlimit:10"/><ellipse cx="50.57" cy="24" rx="5" ry="3.5" style="fill:none;stroke:#ff7100;stroke-miterlimit:10"/><polygon points="11.57 16.37 0.57 14.8 0.57 2.23 11.57 6.16 11.57 16.37" style="fill:none;stroke:#ff7100;stroke-linecap:round;stroke-linejoin:round"/><polygon points="44.57 16.37 55.57 14.8 55.57 2.23 44.57 6.16 44.57 16.37" style="fill:none;stroke:#ff7100;stroke-linecap:round;stroke-linejoin:round"/><path d="M36.4,15.76a12.84,12.84,0,0,0,0-10.84" style="fill:none;stroke:#ff7100;stroke-miterlimit:10"/><path d="M20.49,4.92a12.94,12.94,0,0,0,0,10.84" style="fill:none;stroke:#ff7100;stroke-miterlimit:10"/><circle cx="28.07" cy="10" r="1" style="fill:#ff7100"/><rect id="f9dd0eea-bf48-434c-85b9-165bec503056" data-name="frame" x="0.07" width="56" height="32" style="fill:none;opacity:0.3"/></g></g></g></svg>