<svg xmlns="http://www.w3.org/2000/svg" viewBox="0 0 120 64"><g id="b51091a5-5f06-4ff9-b587-8733508136ea" data-name="Layer 2"><g id="b4392751-cb1b-4491-90e5-843c0e7ecd6b" data-name="icons"><g id="ae66eab7-6c50-4174-8135-08e7f4b8be3e" data-name="hyperjump icon"><line x1="65.5" y1="34.5" x2="91.5" y2="52.5" style="fill:none;stroke:#ff7100;stroke-linecap:round;stroke-linejoin:round"/><line x1="59.5" y1="27.5" x2="42.5" y2="3.5" style="fill:none;stroke:#ff7100;stroke-linecap:round;stroke-linejoin:round"/><line x1="62.5" y1="28.5" x2="71.5" y2="4.5" style="fill:none;stroke:#ff7100;stroke-linecap:round;stroke-linejoin:round"/><line x1="61.5" y1="35.5" x2="55.5" y2="62.5" style="fill:none;stroke:#ff7100;stroke-linecap:round;stroke-linejoin:round"/><line x1="68.5" y1="30.5" x2="116.5" y2="22.5" style="fill:none;stroke:#ff7100;stroke-linecap:round;stroke-linejoin:round"/><line x1="55.5" y1="31.5" x2="8.5" y2="28.5" style="fill:none;stroke:#ff7100;stroke-linecap:round;stroke-linejoin:round"/><line x1="57.5" y1="29.5" x2="11.5" y2="11.5" style="fill:none;stroke:#ff7100;stroke-linecap:round;stroke-linejoin:round"/><line x1="56.5" y1="32.5" x2="2.5" y2="46.5" style="fill:none;stroke:#ff7100;stroke-linecap:round;stroke-linejoin:round"/><line x1="71.5" y1="36.5" x2="114.5" y2="55.5" style="fill:none;stroke:#ff7100;stroke-linecap:round;stroke-linejoin:round"/><line x1="63.5" y1="30.5" x2="100.5" y2="6.5" style="fill:none;stroke:#ff7100;stroke-linecap:round;stroke-linejoin:round"/><circle cx="61.5" cy="31.5" r="27" style="fill:none;stroke:#ff7100;stroke-linecap:round;stroke-linejoin:round"/><circle cx="61.5" cy="31.5" r="22" style="fill:none;stroke:#ff7100;stroke-linecap:round;stroke-linejoin:round"/><circle cx="61.5" cy="31.5" r="17" style="fill:none;stroke:#ff7100;stroke-linecap:round;stroke-linejoin:round"/><line x1="54.5" y1="40.5" x2="47.5" y2="50.5" style="fill:none;stroke:#ff7100;stroke-linecap:round;stroke-linejoin:round"/><line x1="66.5" y1="42.5" x2="74.5" y2="59.5" style="fill:none;stroke:#ff7100;stroke-linecap:round;stroke-linejoin:round"/><line x1="72.5" y1="32.5" x2="106.5" y2="32.5" style="fill:none;stroke:#ff7100;stroke-linecap:round;stroke-linejoin:round"/><line x1="68.5" y1="22.5" x2="75.5" y2="14.5" style="fill:none;stroke:#ff7100;stroke-linecap:round;stroke-linejoin:round"/><line x1="60.5" y1="2.5" x2="61.5" y2="20.5" style="fill:none;stroke:#ff7100;stroke-linecap:round;stroke-linejoin:round"/><line x1="33.5" y1="8.5" x2="50.5" y2="22.5" style="fill:none;stroke:#ff7100;stroke-linecap:round;stroke-linejoin:round"/><line x1="16.5" y1="23.5" x2="38.5" y2="27.5" style="fill:none;stroke:#ff7100;stroke-linecap:round;stroke-linejoin:round"/><line x1="22.5" y1="34.5" x2="36.5" y2="33.5" style="fill:none;stroke:#ff7100;stroke-linecap:round;stroke-linejoin:round"/><line x1="24.5" y1="53.5" x2="47.5" y2="39.5" style="fill:none;stroke:#ff7100;stroke-linecap:round;stroke-linejoin:round"/><rect id="f77eb938-81b8-4927-bdb7-bb2261070c7c" data-name="frame" width="120" height="64" style="fill:none;opacity:0.3"/></g></g></g></svg>