<svg xmlns="http://www.w3.org/2000/svg" viewBox="0 0 293.5 298.35"><g id="b09d0f01-ccda-4214-afc7-c1bbe9720f9b" data-name="Layer 2"><g id="fac38ada-2b89-47f7-9cae-25bcfa6a68bf" data-name="graphics"><polyline points="289.43 3.76 260 3.76 194.53 141.53" style="fill:none;stroke:#f76e01;stroke-miterlimit:10"/><path d="M289.24,0a3.76,3.76,0,1,1-3.76,3.76A3.76,3.76,0,0,1,289.24,0Z" style="fill:#f76e01"/><path d="M191.22,139.75a3.76,3.76,0,1,0,5-1.78A3.75,3.75,0,0,0,191.22,139.75Z" style="fill:#f76e01"/><polyline points="289.93 138.76 260.5 138.76 200.32 162.45" style="fill:none;stroke:#f76e01;stroke-miterlimit:10"/><path d="M289.74,135a3.76,3.76,0,1,1-3.76,3.76A3.76,3.76,0,0,1,289.74,135Z" style="fill:#f76e01"/><path d="M199.12,158.88A3.76,3.76,0,1,0,204,161,3.77,3.77,0,0,0,199.12,158.88Z" style="fill:#f76e01"/><polyline points="289.93 268.76 260.5 268.76 223.91 294.69" style="fill:none;stroke:#f76e01;stroke-miterlimit:10"/><path d="M289.74,265a3.76,3.76,0,1,1-3.76,3.76A3.76,3.76,0,0,1,289.74,265Z" style="fill:#f76e01"/><path d="M221.89,291.52a3.76,3.76,0,1,0,5.24.89A3.76,3.76,0,0,0,221.89,291.52Z" style="fill:#f76e01"/><polyline points="3.57 3.76 35 3.76 106.83 97.92" style="fill:none;stroke:#f76e01;stroke-miterlimit:10"/><path d="M3.76,7.52A3.76,3.76,0,1,1,7.52,3.76,3.76,3.76,0,0,1,3.76,7.52Z" style="fill:#f76e01"/><path d="M103.73,100.05a3.76,3.76,0,1,0,.71-5.27A3.76,3.76,0,0,0,103.73,100.05Z" style="fill:#f76e01"/><polyline points="3.57 133.76 35 133.76 92.58 196.13" style="fill:none;stroke:#f76e01;stroke-miterlimit:10"/><path d="M3.76,137.52a3.76,3.76,0,1,1,3.76-3.76A3.76,3.76,0,0,1,3.76,137.52Z" style="fill:#f76e01"/><path d="M89.69,198.55a3.76,3.76,0,1,0,.21-5.32A3.76,3.76,0,0,0,89.69,198.55Z" style="fill:#f76e01"/><line x1="3.57" y1="273.76" x2="73.93" y2="273.76" style="fill:none;stroke:#f76e01;stroke-miterlimit:10"/><path d="M3.76,277.52a3.76,3.76,0,1,1,3.76-3.76A3.76,3.76,0,0,1,3.76,277.52Z" style="fill:#f76e01"/><path d="M73.74,277.52A3.76,3.76,0,1,0,70,273.76,3.76,3.76,0,0,0,73.74,277.52Z" style="fill:#f76e01"/></g></g></svg>