<svg xmlns="http://www.w3.org/2000/svg" viewBox="0 0 293.5 279.85"><g id="a011529f-7214-4fc0-809b-74c1794c1043" data-name="Layer 2"><g id="ec637e59-ed2c-4157-894e-1f757e2020c9" data-name="graphics"><g id="f2634e50-7e23-4386-a13a-c707e3273aeb" data-name="lines_python"><polyline points="289.43 3.76 260 3.76 169.84 153.7" style="fill:none;stroke:#ff7100;stroke-miterlimit:10"/><path d="M289.24,0a3.76,3.76,0,1,1-3.76,3.76A3.76,3.76,0,0,1,289.24,0Z" style="fill:#ff7100"/><path d="M166.72,151.6a3.76,3.76,0,1,0,5.15-1.28A3.76,3.76,0,0,0,166.72,151.6Z" style="fill:#ff7100"/><polyline points="289.93 138.76 260.5 138.76 184.22 175.22" style="fill:none;stroke:#ff7100;stroke-miterlimit:10"/><path d="M289.74,135a3.76,3.76,0,1,1-3.76,3.76A3.76,3.76,0,0,1,289.74,135Z" style="fill:#ff7100"/><path d="M182.77,171.75a3.76,3.76,0,1,0,5,1.77A3.75,3.75,0,0,0,182.77,171.75Z" style="fill:#ff7100"/><polyline points="289.93 268.76 260.5 268.76 219.51 276.13" style="fill:none;stroke:#ff7100;stroke-miterlimit:10"/><path d="M289.74,265a3.76,3.76,0,1,1-3.76,3.76A3.76,3.76,0,0,1,289.74,265Z" style="fill:#ff7100"/><path d="M219,272.39a3.76,3.76,0,1,0,4.36,3A3.76,3.76,0,0,0,219,272.39Z" style="fill:#ff7100"/><polyline points="3.57 3.76 35 3.76 126.14 153.71" style="fill:none;stroke:#ff7100;stroke-miterlimit:10"/><path d="M3.76,7.52A3.76,3.76,0,1,1,7.52,3.76,3.76,3.76,0,0,1,3.76,7.52Z" style="fill:#ff7100"/><path d="M122.83,155.5a3.76,3.76,0,1,0,1.26-5.17A3.77,3.77,0,0,0,122.83,155.5Z" style="fill:#ff7100"/><polyline points="3.57 133.76 35 133.76 102.61 209.1" style="fill:none;stroke:#ff7100;stroke-miterlimit:10"/><path d="M3.76,137.52a3.76,3.76,0,1,1,3.76-3.76A3.76,3.76,0,0,1,3.76,137.52Z" style="fill:#ff7100"/><path d="M99.69,211.47a3.76,3.76,0,1,0,.29-5.31A3.75,3.75,0,0,0,99.69,211.47Z" style="fill:#ff7100"/><line x1="3.57" y1="273.76" x2="73.93" y2="273.76" style="fill:none;stroke:#ff7100;stroke-miterlimit:10"/><path d="M3.76,277.52a3.76,3.76,0,1,1,3.76-3.76A3.76,3.76,0,0,1,3.76,277.52Z" style="fill:#ff7100"/><path d="M73.74,277.52A3.76,3.76,0,1,0,70,273.76,3.76,3.76,0,0,0,73.74,277.52Z" style="fill:#ff7100"/></g></g></g></svg>