<svg xmlns="http://www.w3.org/2000/svg" viewBox="0 0 64.5 27"><g id="abd9063b-9718-43f1-ba54-cce4619b4238" data-name="Layer 2"><g id="b1453d5c-9df4-41f5-9d50-486052a1f922" data-name="icons"><g id="accadded-fcaf-4b7f-9097-ba41576777e1" data-name="orbit lines icon"><circle cx="41.5" cy="7.5" r="3" style="fill:#ff7100"/><circle cx="11" cy="16" r="6.5" style="fill:#ff7100"/><path d="M37.84,26.5C44.74,23.79,49,20.09,49,16,49,7.72,31.54,1,10,1c-3.28,0-6.46.16-9.5.45" style="fill:none;stroke:#ff7100;stroke-linecap:round;stroke-linejoin:round"/><path d="M.5,25.2a61.4,61.4,0,0,0,10,.8C24.58,26,36,21.52,36,16S24.58,6,10.5,6a61.4,61.4,0,0,0-10,.8" style="fill:none;stroke:#ff7100;stroke-linecap:round;stroke-linejoin:round"/><path d="M56.26,26.5c4.29-3,6.74-6.37,6.74-10C63,10,55.23,4.26,43.12.5" style="fill:none;stroke:#ff7100;stroke-linecap:round;stroke-linejoin:round"/><rect id="a080c6fd-a2be-4112-a0c4-e0b9d0a0ce8d" data-name="frame" x="0.5" y="0.5" width="64" height="26" style="fill:none;opacity:0.3"/></g></g></g></svg>