<svg xmlns="http://www.w3.org/2000/svg" viewBox="0 0 41 32"><g id="b4825263-57d2-4566-a066-61b65b0c95ec" data-name="Layer 2"><g id="bc9db1ac-007a-439e-88c0-f0ef1271f6d5" data-name="icons"><g id="efad858f-3d1d-4536-aa80-b2b8ecd12148" data-name="rotational correction icon"><rect x="11.32" y="6.98" width="17.93" height="17.93" transform="translate(17.22 -9.67) rotate(45)" style="fill:none;stroke:#ff7100;stroke-linejoin:round"/><rect x="15.7" y="15.12" width="9.44" height="2.36" style="fill:none;stroke:#ff7100;stroke-linejoin:round"/><polygon points="20.29 28.77 11.22 25.02 7.46 15.95 11.22 6.88 20.29 3.12 29.36 6.88 33.11 15.95 29.36 25.02 20.29 28.77" style="fill:none;stroke:#ff7100;stroke-linejoin:round"/><path d="M35.63,4.33A18,18,0,0,1,33.77,29.7" style="fill:none;stroke:#ff7100;stroke-linecap:round;stroke-linejoin:round"/><polygon points="34.5 6.07 33.75 2.15 37.52 3.46 34.5 6.07" style="fill:#ff7100"/><path d="M5,27.57A18,18,0,0,1,6.81,2.2" style="fill:none;stroke:#ff7100;stroke-linecap:round;stroke-linejoin:round"/><polygon points="6.08 25.82 6.82 29.74 3.06 28.43 6.08 25.82" style="fill:#ff7100"/><rect id="baa78640-0eca-4053-bce2-3e31f7481440" data-name="frame" width="41" height="32" style="fill:none;opacity:0.3"/></g></g></g></svg>