<svg xmlns="http://www.w3.org/2000/svg" viewBox="0 0 51 32"><g id="f913c3d1-1566-4424-a9b8-f82701259220" data-name="Layer 2"><g id="a48c9dda-cf8e-4b92-9e57-29a3ffb5b080" data-name="icons"><g id="f691a6ed-f0d1-4553-8d3e-a62f14341df7" data-name="silent running icon"><rect id="a5b8d3f8-809f-4423-9d14-03bb66047aaf" data-name="frame" width="51" height="32" style="fill:none;opacity:0.49"/><g id="b2a5dceb-a77c-47c1-a6b9-60c8bc25173c" data-name="silent running icon"><polyline points="4.54 27.76 3.04 27.76 3.04 26.26" style="fill:none;stroke:#f74601;stroke-linejoin:round"/><line x1="3.04" y1="24.71" x2="3.04" y2="22.39" style="fill:none;stroke:#f74601;stroke-linejoin:round;stroke-dasharray:1.5467122793197632,1.5467122793197632"/><polyline points="3.04 21.62 3.04 20.12 4.1 19.06" style="fill:none;stroke:#f74601;stroke-linejoin:round"/><polyline points="6.16 17 19.07 4.09 31.97 4.09 45.91 18.03" style="fill:none;stroke:#f74601;stroke-linejoin:round;stroke-dasharray:2.9071462154388428,2.9071462154388428"/><polyline points="46.94 19.06 48 20.12 48 21.62" style="fill:none;stroke:#f74601;stroke-linejoin:round"/><line x1="48" y1="23.16" x2="48" y2="25.48" style="fill:none;stroke:#f74601;stroke-linejoin:round;stroke-dasharray:1.5467122793197632,1.5467122793197632"/><polyline points="48 26.26 48 27.76 46.5 27.76" style="fill:none;stroke:#f74601;stroke-linejoin:round"/><line x1="43.7" y1="27.76" x2="5.94" y2="27.76" style="fill:none;stroke:#f74601;stroke-linejoin:round;stroke-dasharray:2.7972655296325684,2.7972655296325684"/><polygon points="6.04 24.76 6.04 21.36 20.31 7.09 30.73 7.09 45 21.36 45 24.76 6.04 24.76" style="fill:none;stroke:#f74601;stroke-linejoin:round"/><polygon points="27.13 10.94 23.95 10.94 24.52 17.85 26.5 17.85 27.13 10.94" style="fill:#f74601"/><circle cx="25.51" cy="20.56" r="1.42" style="fill:#f74601"/></g></g></g></g></svg>