<svg xmlns="http://www.w3.org/2000/svg" viewBox="0 0 51 32"><g id="bfc0d5d0-acef-4ecd-a2fd-d3c5eb0e44d8" data-name="Layer 2"><g id="e775a2e5-b436-4c1b-b673-0a810125c3a0" data-name="icons"><g id="f5a9d4ee-21d0-4e73-8311-5494f0c3e265" data-name="silent running icon"><polyline points="4.54 27.76 3.04 27.76 3.04 26.26" style="fill:none;stroke:#ff7100;stroke-linejoin:round"/><line x1="3.04" y1="24.71" x2="3.04" y2="22.39" style="fill:none;stroke:#ff7100;stroke-linejoin:round;stroke-dasharray:1.5467122793197632,1.5467122793197632"/><polyline points="3.04 21.62 3.04 20.12 4.1 19.06" style="fill:none;stroke:#ff7100;stroke-linejoin:round"/><polyline points="6.16 17 19.07 4.09 31.97 4.09 45.91 18.03" style="fill:none;stroke:#ff7100;stroke-linejoin:round;stroke-dasharray:2.9071462154388428,2.9071462154388428"/><polyline points="46.94 19.06 48 20.12 48 21.62" style="fill:none;stroke:#ff7100;stroke-linejoin:round"/><line x1="48" y1="23.16" x2="48" y2="25.48" style="fill:none;stroke:#ff7100;stroke-linejoin:round;stroke-dasharray:1.5467122793197632,1.5467122793197632"/><polyline points="48 26.26 48 27.76 46.5 27.76" style="fill:none;stroke:#ff7100;stroke-linejoin:round"/><line x1="43.7" y1="27.76" x2="5.94" y2="27.76" style="fill:none;stroke:#ff7100;stroke-linejoin:round;stroke-dasharray:2.7972655296325684,2.7972655296325684"/><path d="M30.73,7.09H20.31L6,21.36v3.4H45v-3.4ZM25.51,22.48a1.92,1.92,0,1,1,1.92-1.92A1.92,1.92,0,0,1,25.51,22.48ZM27,18.35H24.07l-.67-7.91h4.28Z" style="fill:#ff7100;stroke:#ff7100;stroke-linejoin:round"/><rect id="f638c2bf-5cf6-4c16-9504-acffb9dc1eb6" data-name="frame" width="51" height="32" style="fill:none;opacity:0.49"/></g></g></g></svg>