<svg xmlns="http://www.w3.org/2000/svg" viewBox="0 0 51 32"><g id="f32cd056-e90a-4569-aa20-b87625925a50" data-name="Layer 2"><g id="ae6efddc-8ca5-4ff7-a7ca-0a48b5be716b" data-name="icons active"><g id="b775941b-22d4-44d0-ae67-1802dd403607" data-name="silent running icon"><polyline points="4.54 27.76 3.04 27.76 3.04 26.26" style="fill:none;stroke:#f7b101;stroke-linejoin:round"/><line x1="3.04" y1="24.71" x2="3.04" y2="22.39" style="fill:none;stroke:#f7b101;stroke-linejoin:round;stroke-dasharray:1.5467122793197632,1.5467122793197632"/><polyline points="3.04 21.62 3.04 20.12 4.1 19.06" style="fill:none;stroke:#f7b101;stroke-linejoin:round"/><polyline points="6.16 17 19.07 4.09 31.97 4.09 45.91 18.03" style="fill:none;stroke:#f7b101;stroke-linejoin:round;stroke-dasharray:2.9071462154388428,2.9071462154388428"/><polyline points="46.94 19.06 48 20.12 48 21.62" style="fill:none;stroke:#f7b101;stroke-linejoin:round"/><line x1="48" y1="23.16" x2="48" y2="25.48" style="fill:none;stroke:#f7b101;stroke-linejoin:round;stroke-dasharray:1.5467122793197632,1.5467122793197632"/><polyline points="48 26.26 48 27.76 46.5 27.76" style="fill:none;stroke:#f7b101;stroke-linejoin:round"/><line x1="43.7" y1="27.76" x2="5.94" y2="27.76" style="fill:none;stroke:#f7b101;stroke-linejoin:round;stroke-dasharray:2.7972655296325684,2.7972655296325684"/><polygon points="6.04 24.76 6.04 21.36 20.31 7.09 30.73 7.09 45 21.36 45 24.76 6.04 24.76" style="fill:#f7b101;stroke:#f7b101;stroke-linejoin:round"/><polygon points="27.13 10.94 23.95 10.94 24.52 17.85 26.5 17.85 27.13 10.94" style="fill:#1d1d1b"/><circle cx="25.51" cy="20.56" r="1.42" style="fill:#1d1d1b"/><rect id="f976bff8-4375-4e26-969c-c3f2241d7359" data-name="frame" width="51" height="32" style="fill:none;opacity:0.49"/></g></g></g></svg>