<svg xmlns="http://www.w3.org/2000/svg" viewBox="0 0 140 64"><g id="ea9293e3-408e-4583-a667-09fc4ae771a8" data-name="Layer 2"><g id="a71e8921-77de-4d6c-b21a-bb89e6bf1c96" data-name="icons"><g id="bfbfea4c-4533-4fc2-8666-ad1c8fdcc30f" data-name="supercruise icon"><line x1="56.56" y1="27.12" x2="56.56" y2="37.87" style="fill:none;stroke:#ff7100;stroke-linecap:round;stroke-linejoin:round"/><line x1="52.38" y1="26.53" x2="52.38" y2="38.47" style="fill:none;stroke:#ff7100;stroke-linecap:round;stroke-linejoin:round"/><line x1="48.2" y1="25.33" x2="48.2" y2="39.67" style="fill:none;stroke:#ff7100;stroke-linecap:round;stroke-linejoin:round"/><line x1="42.83" y1="24.14" x2="42.83" y2="40.86" style="fill:none;stroke:#ff7100;stroke-linecap:round;stroke-linejoin:round"/><line x1="34.46" y1="21.75" x2="34.46" y2="43.25" style="fill:none;stroke:#ff7100;stroke-linecap:round;stroke-linejoin:round"/><line x1="22.52" y1="16.37" x2="22.52" y2="48.62" style="fill:none;stroke:#ff7100;stroke-linecap:round;stroke-linejoin:round"/><line x1="6.99" y1="11" x2="6.99" y2="54" style="fill:none;stroke:#ff7100;stroke-linecap:round;stroke-linejoin:round"/><line x1="83.44" y1="37.87" x2="83.44" y2="27.12" style="fill:none;stroke:#ff7100;stroke-linecap:round;stroke-linejoin:round"/><line x1="87.62" y1="38.47" x2="87.62" y2="26.53" style="fill:none;stroke:#ff7100;stroke-linecap:round;stroke-linejoin:round"/><line x1="91.8" y1="39.67" x2="91.8" y2="25.33" style="fill:none;stroke:#ff7100;stroke-linecap:round;stroke-linejoin:round"/><line x1="97.17" y1="40.86" x2="97.17" y2="24.14" style="fill:none;stroke:#ff7100;stroke-linecap:round;stroke-linejoin:round"/><line x1="105.54" y1="43.25" x2="105.54" y2="21.75" style="fill:none;stroke:#ff7100;stroke-linecap:round;stroke-linejoin:round"/><line x1="117.48" y1="48.62" x2="117.48" y2="16.37" style="fill:none;stroke:#ff7100;stroke-linecap:round;stroke-linejoin:round"/><line x1="133.01" y1="54" x2="133.01" y2="11" style="fill:none;stroke:#ff7100;stroke-linecap:round;stroke-linejoin:round"/><line x1="2.21" y1="32.5" x2="137.79" y2="32.5" style="fill:none;stroke:#ff7100;stroke-linecap:round;stroke-linejoin:round"/><rect id="ae4ee4f4-d7d6-45b9-ab25-2c3ee2f94b40" data-name="frame" width="140" height="64" style="fill:none;opacity:0.3"/></g></g></g></svg>