<svg xmlns="http://www.w3.org/2000/svg" viewBox="0 0 140 64"><g id="b81ecaf8-6af9-425c-9d8a-90d0a77afe63" data-name="Layer 2"><g id="b791d0c5-60b8-4156-b570-6d8ff03cab50" data-name="icons"><g id="f6b27cd9-f775-42f7-9304-1e6c26c228a1" data-name="system map icon"><circle cx="18.5" cy="18.5" r="18.5" style="fill:#ff7100"/><circle cx="69.5" cy="18.5" r="4.5" style="fill:#ff7100"/><circle cx="69.5" cy="40.5" r="2.5" style="fill:#ff7100"/><circle cx="96.5" cy="40.5" r="2.5" style="fill:#ff7100"/><circle cx="69.5" cy="60.5" r="2.5" style="fill:#ff7100"/><circle cx="96.5" cy="18.5" r="4.5" style="fill:#ff7100"/><circle cx="127.5" cy="18.5" r="8.5" style="fill:#ff7100"/><line x1="60.5" y1="18.5" x2="60" y2="18.5" style="fill:none;stroke:#ff7100;stroke-linecap:round;stroke-miterlimit:10"/><line x1="56.21" y1="18.5" x2="43.89" y2="18.5" style="fill:none;stroke:#ff7100;stroke-linecap:round;stroke-miterlimit:10;stroke-dasharray:0.9473684430122375,3.78947377204895"/><line x1="42" y1="18.5" x2="41.5" y2="18.5" style="fill:none;stroke:#ff7100;stroke-linecap:round;stroke-miterlimit:10"/><line x1="79.5" y1="18.5" x2="80" y2="18.5" style="fill:none;stroke:#ff7100;stroke-linecap:round;stroke-miterlimit:10"/><line x1="83.11" y1="18.5" x2="85.44" y2="18.5" style="fill:none;stroke:#ff7100;stroke-linecap:round;stroke-miterlimit:10;stroke-dasharray:0.7777777910232544,3.1111111640930176"/><line x1="87" y1="18.5" x2="87.5" y2="18.5" style="fill:none;stroke:#ff7100;stroke-linecap:round;stroke-miterlimit:10"/><line x1="69.5" y1="33.5" x2="69.5" y2="33" style="fill:none;stroke:#ff7100;stroke-linecap:round;stroke-miterlimit:10"/><line x1="69.5" y1="30.78" x2="69.5" y2="29.11" style="fill:none;stroke:#ff7100;stroke-linecap:round;stroke-miterlimit:10;stroke-dasharray:0.5555555820465088,2.222222328186035"/><line x1="69.5" y1="28" x2="69.5" y2="27.5" style="fill:none;stroke:#ff7100;stroke-linecap:round;stroke-miterlimit:10"/><line x1="96.5" y1="33.5" x2="96.5" y2="33" style="fill:none;stroke:#ff7100;stroke-linecap:round;stroke-miterlimit:10"/><line x1="96.5" y1="30.78" x2="96.5" y2="29.11" style="fill:none;stroke:#ff7100;stroke-linecap:round;stroke-miterlimit:10;stroke-dasharray:0.5555555820465088,2.222222328186035"/><line x1="96.5" y1="28" x2="96.5" y2="27.5" style="fill:none;stroke:#ff7100;stroke-linecap:round;stroke-miterlimit:10"/><line x1="69.5" y1="53.5" x2="69.5" y2="53" style="fill:none;stroke:#ff7100;stroke-linecap:round;stroke-miterlimit:10"/><line x1="69.5" y1="50.78" x2="69.5" y2="49.11" style="fill:none;stroke:#ff7100;stroke-linecap:round;stroke-miterlimit:10;stroke-dasharray:0.5555555820465088,2.222222328186035"/><line x1="69.5" y1="48" x2="69.5" y2="47.5" style="fill:none;stroke:#ff7100;stroke-linecap:round;stroke-miterlimit:10"/><line x1="114.5" y1="18.5" x2="114" y2="18.5" style="fill:none;stroke:#ff7100;stroke-linecap:round;stroke-miterlimit:10"/><line x1="110.44" y1="18.5" x2="107.78" y2="18.5" style="fill:none;stroke:#ff7100;stroke-linecap:round;stroke-miterlimit:10;stroke-dasharray:0.8888888955116272,3.555555582046509"/><line x1="106" y1="18.5" x2="105.5" y2="18.5" style="fill:none;stroke:#ff7100;stroke-linecap:round;stroke-miterlimit:10"/><ellipse cx="127.5" cy="18.5" rx="15.03" ry="4.01" transform="translate(24.26 95.57) rotate(-45)" style="fill:none;stroke:#ff7100;stroke-miterlimit:10"/><rect id="fbd24368-a8d4-48c2-802d-9f7ded3151d1" data-name="frame" width="140" height="64" style="fill:none;opacity:0.3"/></g></g></g></svg>